<svg width="122" height="122" viewBox="0 0 122 122" fill="none" xmlns="http://www.w3.org/2000/svg">
<path d="M43.9443 67.5048C41.4997 59.7525 39.1142 52.1428 36.6844 44.5449C36.4217 43.7257 35.9788 42.9273 35.4622 42.2388C34.2222 40.5886 32.8877 39.0127 31.3613 37.1221C32.557 37.1221 33.4545 37.1221 34.3491 37.1221C37.4963 37.1191 40.6465 37.1577 43.7937 37.0835C44.8654 37.0598 45.323 37.3981 45.6301 38.4458C46.9764 43.0312 48.4201 47.587 49.8313 52.1517C49.976 52.6206 50.156 53.0777 50.407 53.7929C52.1843 51.3949 53.8554 49.157 55.5087 46.9073C57.6698 43.9661 59.8103 41.013 61.9714 38.0718C62.9634 36.7214 66.211 36.6205 67.2975 37.9205C68.5611 39.4341 69.8394 40.9418 70.9938 42.5356C71.3363 43.0105 71.5134 43.8266 71.3776 44.3935C69.6151 51.7273 67.7964 59.0432 65.9423 66.3532C65.8301 66.7925 65.3105 67.4454 64.9651 67.4543C61.7765 67.5404 58.585 67.5048 55.2046 67.5048C56.049 63.9967 56.8579 60.64 57.6639 57.2832C57.5753 57.2417 57.4897 57.1972 57.4011 57.1556C55.612 59.6071 53.6428 61.9518 52.081 64.5428C50.6698 66.8815 48.9663 68.0153 46.2442 67.5226C45.5327 67.395 44.7798 67.5018 43.9413 67.5018L43.9443 67.5048Z" fill="#F7F9FC"/>
<path d="M69.3432 37.1608H86.1037C85.4572 39.8794 84.8401 42.4853 84.1109 45.5512C85.1973 44.4975 85.9886 43.7615 86.7444 42.9898C88.3977 41.3011 90.0126 39.5678 91.6955 37.9087C92.0793 37.5288 92.6727 37.146 93.1746 37.1371C96.7617 37.0747 100.352 37.1104 103.942 37.1222C104.125 37.1222 104.308 37.2053 104.76 37.3151C99.7702 42.2033 94.9136 46.9609 89.9802 51.7927C93.6322 56.9658 97.2341 62.0617 100.99 67.3773H82.9654C84.226 65.8429 85.3863 64.4302 86.6145 62.9343C85.0143 60.5155 83.4259 58.1114 81.6486 55.4225C80.9725 58.1055 80.3702 60.468 79.7827 62.8304C79.4727 64.071 79.2424 65.3383 78.8468 66.5522C78.7199 66.9381 78.1884 67.4515 77.8312 67.4574C74.6899 67.5287 71.5486 67.499 68.1475 67.499C68.6435 65.4185 69.0893 63.4834 69.5675 61.5572C71.0142 55.7371 72.4933 49.9229 73.8868 44.0909C74.0168 43.5478 73.8071 42.7583 73.4676 42.2983C72.2188 40.6066 70.8459 39.0098 69.3461 37.1578L69.3432 37.1608Z" fill="#F7F9FC"/>
<path d="M17.1812 49.1334H27.2015C26.6907 51.2317 26.2066 53.2143 25.6928 55.3215H15.5958C15.0909 57.3071 14.6126 59.1917 14.0812 61.2871H27.1454C26.5225 63.3854 25.994 65.2522 25.3917 67.0953C25.3238 67.3001 24.8485 67.49 24.5621 67.4871C17.193 67.4247 9.82391 67.3357 2.45482 67.2467C2.37216 67.2467 2.29244 67.1547 2.10645 67.0389C3.13387 62.9343 4.1731 58.794 5.20642 54.6508C5.87366 51.9796 6.49956 49.2996 7.22879 46.6492C7.34984 46.213 7.89602 45.5838 8.25916 45.5748C11.3946 45.4888 14.5329 45.5244 17.872 45.5244C17.6359 46.765 17.4262 47.8483 17.1812 49.1334Z" fill="#F7F9FC"/>
<path d="M118.657 45.3164C117.662 49.3914 116.717 53.312 115.745 57.2238C114.999 60.2362 114.19 63.2309 113.478 66.2493C113.265 67.1515 112.944 67.5522 111.937 67.5284C108.946 67.4572 105.952 67.5017 102.729 67.5017C104.565 59.9899 106.357 52.6621 108.152 45.3135H118.657V45.3164Z" fill="#F7F9FC"/>
<path d="M33.9503 43.9246C35.6597 49.3618 37.4193 54.7872 39.0283 60.2541C39.2793 61.1029 38.9309 62.1714 38.7154 63.1033C38.3818 64.5339 38.3345 66.4541 37.4016 67.202C36.4775 67.941 34.6057 67.5077 33.1502 67.5344C31.3994 67.5671 29.6487 67.5433 27.771 67.5433C29.7579 59.5596 31.7006 51.748 33.6432 43.9364C33.7436 43.9335 33.847 43.9305 33.9473 43.9275L33.9503 43.9246Z" fill="#F7F9FC"/>
<path d="M32.3386 43.2064C29.9354 43.2064 27.8835 43.2064 25.8316 43.2064C20.3254 43.2064 14.8222 43.1827 9.31609 43.2272C8.37134 43.2361 7.77791 42.9393 7.24354 42.1706C6.11869 40.5561 4.90232 39.0068 3.5708 37.2231C4.23508 37.1607 4.72222 37.0776 5.21231 37.0776C12.2389 37.0836 19.2685 37.0776 26.2951 37.1489C26.9151 37.1548 27.7004 37.5258 28.1138 37.9918C29.5161 39.5677 30.7857 41.2624 32.3386 43.2064Z" fill="#F7F9FC"/>
<path d="M52.9458 82.6115H55.1217C55.6797 80.3173 56.282 78.0439 56.7691 75.7467C57.0289 74.5091 57.4983 73.9541 58.9007 74.0194C61.794 74.1559 64.7021 74.1826 67.5925 74.0134C69.3196 73.9125 70.3795 74.4942 71.1707 76.3076C69.9691 76.3076 68.8856 76.3076 67.8021 76.3076C67.064 76.3076 66.3289 76.2958 65.5908 76.3106C63.8695 76.3492 62.0775 76.5777 61.0235 74.4645C60.3976 76.8448 59.748 79.2221 59.1546 81.6113C58.3368 84.8968 58.3545 84.8998 55.0302 84.8938C54.1947 84.8938 53.3591 84.8938 52.5236 84.8938C49.9551 84.8909 48.8952 83.4841 49.5476 80.9495C49.6953 80.3767 49.8015 79.792 49.9728 79.2281C50.5131 77.4562 51.1212 75.6873 48.6855 74.1767H54.9741C54.3068 76.9457 53.6455 79.697 52.9458 82.6115Z" fill="#F7F9FC"/>
<path d="M87.2435 75.0108C86.6117 76.4265 85.6108 76.6787 83.0688 76.0881C83.1988 75.4797 83.3287 74.8683 83.5028 74.061C84.2586 74.061 85.0292 74.061 85.8027 74.061C88.8525 74.061 91.8994 74.061 94.9491 74.061C97.2313 74.061 98.4064 75.5598 97.8572 77.7561C97.3435 79.8129 96.88 81.8815 96.2807 83.9116C96.1596 84.3182 95.5367 84.8257 95.1204 84.8465C93.2073 84.9444 91.2882 84.9237 89.3692 84.8762C87.9993 84.8435 86.7947 83.1251 87.1195 81.7777C87.4413 80.4361 87.6952 79.0739 88.0997 77.7591C88.4451 76.6402 88.386 75.7349 87.2464 75.0078L87.2435 75.0108ZM90.618 82.852C91.5451 82.6176 92.7319 82.6146 92.8648 82.2377C93.5261 80.3679 93.907 78.4001 94.4325 76.287C93.3873 76.4532 92.3599 75.7409 92.0204 77.1091C91.5687 78.9106 91.1377 80.7181 90.618 82.852Z" fill="#F7F9FC"/>
<path d="M35.8726 84.9058C36.6254 83.2022 37.6322 82.4305 39.3711 82.6383C40.6318 82.7896 41.9219 82.668 43.3981 82.668C43.9236 80.6409 44.4551 78.59 45.0042 76.465C43.6048 76.1296 42.5242 76.0613 42.4032 77.8213C42.3855 78.0647 42.3146 78.3051 42.2556 78.5455C41.7123 80.7398 40.2234 81.74 37.7886 81.5461C38.016 80.5489 38.2226 79.5694 38.4647 78.5989C38.8111 77.2 38.448 75.6874 37.3753 74.061C39.9941 74.061 42.4652 74.0402 44.9363 74.0728C45.8633 74.0847 46.7904 74.1975 47.7115 74.3162C48.6799 74.4409 49.0962 75.0404 48.8688 75.9871C48.2961 78.3763 47.7145 80.7655 47.0797 83.1369C46.6811 84.6268 45.3851 84.8494 44.148 84.882C41.4525 84.9503 38.7541 84.9028 35.8726 84.9028V84.9058Z" fill="#F7F9FC"/>
<path d="M25.0755 84.6714C22.0582 85.4638 19.8409 84.8673 18.6807 81.7035C17.8737 84.0481 16.3266 85.0602 14.0396 84.7397C14.633 82.3149 15.2234 79.9049 15.8316 77.4148H19.5368C19.4808 77.8808 19.4306 78.2963 19.339 79.0502C20.4462 78.1716 22.0729 78.3111 21.9017 76.3078C20.6263 76.3078 19.401 76.2098 18.1965 76.3315C16.4605 76.5066 15.3091 75.8032 14.4676 74.0818C17.6739 74.0818 20.7857 74.0344 23.8975 74.1145C24.733 74.1353 25.8667 76.2366 25.7338 77.1062C25.4563 78.9552 24.7448 80.4154 22.3357 80.6053C23.3454 82.1042 24.178 83.3358 25.0784 84.6714H25.0755Z" fill="#F7F9FC"/>
<path d="M25.5864 74.0639C28.8015 74.0639 31.7805 74.0342 34.7565 74.0787C35.8577 74.0965 37.1597 75.9841 36.894 77.0823C36.3389 79.3735 35.7986 81.6677 35.1403 83.9293C35.0222 84.33 34.3845 84.8226 33.9593 84.8464C32.1023 84.9532 30.2334 84.9325 28.3705 84.9057C26.8559 84.885 25.6159 83.1576 25.9761 81.6499C26.2035 80.6942 26.4367 79.7415 26.6552 78.7859C27.0311 77.1416 26.6749 75.5676 25.5864 74.0639ZM33.233 76.554C33.1327 76.4086 33.0352 76.2631 32.9349 76.1177C32.2824 76.3581 31.1989 76.4442 31.0483 76.8656C30.3988 78.6909 30.0209 80.6141 29.519 82.6026H31.7273C32.2381 80.5458 32.7341 78.5484 33.233 76.551V76.554Z" fill="#F7F9FC"/>
<path d="M8.03165 77.3256V78.8927C9.10926 78.2041 10.6356 78.2872 10.5264 76.3106C9.18898 76.3106 7.81908 76.183 6.48166 76.3432C4.7752 76.548 3.97511 75.6844 3.36102 74.0757C6.42852 74.0757 9.39859 74.0223 12.3598 74.1054C13.2957 74.1321 14.4087 76.1889 14.2759 77.1535C14.0604 78.7235 13.4522 79.8751 11.8225 80.433C10.5795 80.8604 9.43402 81.5757 8.23536 82.1396C7.36737 82.5462 6.61747 82.9855 6.49642 84.1044C6.46395 84.3923 5.94729 84.8315 5.63434 84.8493C4.23492 84.9295 2.82664 84.8849 1.30322 84.7454C3.42302 83.1695 3.60311 80.7714 4.10501 78.5662C4.32939 77.5838 4.67482 77.2247 5.64024 77.3138C6.36947 77.382 7.11052 77.3286 8.0287 77.3286L8.03165 77.3256Z" fill="#F7F9FC"/>
<path d="M102.504 80.1629C102.156 81.4926 101.825 82.4512 101.669 83.4395C101.492 84.5673 100.981 85.063 99.8206 84.9294C99.112 84.8493 98.3887 84.9146 97.4971 84.9146C98.371 81.362 99.1652 78.0379 100.03 74.7346C100.104 74.4467 100.624 74.1202 100.96 74.0905C101.932 74.0045 102.915 74.0609 103.995 74.0609C105.463 77.5838 106.918 81.083 108.359 84.5436C104.01 86.2709 103.8 82.7183 102.498 80.1629H102.504Z" fill="#F7F9FC"/>
<path d="M108.746 43.1529C109.162 41.3692 109.504 39.7398 109.944 38.1371C110.051 37.7454 110.47 37.1518 110.756 37.1459C113.983 37.0746 117.21 37.1013 120.697 37.1013C120.183 39.262 119.723 41.1911 119.256 43.1529H108.743H108.746Z" fill="#F7F9FC"/>
<path d="M62.4229 77.397H66.1665C65.7532 79.1451 65.3605 80.8042 64.9295 82.6354H69.7566C68.9034 84.1075 68.1357 85.176 66.3998 84.9118C65.6794 84.802 64.9324 84.897 64.1973 84.894C62.1395 84.8821 60.9467 83.3388 61.4457 81.3355C61.7675 80.0503 62.0834 78.7652 62.42 77.394L62.4229 77.397Z" fill="#F7F9FC"/>
<path d="M74.6989 77.3879H78.4484C77.855 79.8958 77.2822 82.3088 76.6888 84.8078H71.3066C74.0287 82.8519 73.8634 80.0057 74.6989 77.3879Z" fill="#F7F9FC"/>
<path d="M86.4875 77.3256C85.8823 79.8216 85.345 82.1069 84.7456 84.3744C84.6866 84.6029 84.2585 84.8701 83.9928 84.8819C82.6377 84.9324 81.2796 84.9057 79.4639 84.9057C81.7283 82.9498 81.8405 80.4716 82.5137 78.2071C82.6229 77.839 83.1779 77.4265 83.5765 77.3671C84.4356 77.2395 85.3272 77.3286 86.4875 77.3286V77.3256Z" fill="#F7F9FC"/>
<path d="M81.4952 76.2928C78.7613 76.2928 76.0186 76.4204 73.3024 76.2097C72.5761 76.1533 71.9296 75.067 71.2476 74.4557C71.3184 74.3251 71.3893 74.1974 71.4601 74.0669C74.1793 74.0669 76.9072 73.9392 79.6116 74.15C80.3674 74.2093 81.0464 75.257 81.758 75.8506C81.6694 75.999 81.5838 76.1474 81.4952 76.2958V76.2928Z" fill="#F7F9FC"/>
<path d="M108.445 82.0595C107.839 80.6111 107.004 79.2102 106.706 77.6996C106.499 76.6489 106.96 75.4232 107.305 74.3369C107.376 74.1113 108.256 74.1054 108.769 74.0668C109.351 74.0223 109.936 74.0579 110.747 74.0579C110.068 76.8448 109.425 79.4744 108.781 82.1069L108.445 82.0595Z" fill="#F7F9FC"/>
</svg>
