<svg width="16" height="16" viewBox="0 0 16 16" fill="none" xmlns="http://www.w3.org/2000/svg">
<path d="M14.6668 10.7933C14.6668 13.2199 13.2202 14.6666 10.7935 14.6666H10.0002C9.6335 14.6666 9.3335 14.3666 9.3335 13.9999V10.1533C9.3335 9.97326 9.48016 9.81993 9.66016 9.81993L10.8335 9.79993C10.9268 9.79326 11.0068 9.72659 11.0268 9.63326L11.2602 8.35992C11.2802 8.23992 11.1868 8.12659 11.0602 8.12659L9.64016 8.14659C9.45349 8.14659 9.30684 7.99993 9.30017 7.81993L9.2735 6.18658C9.2735 6.07992 9.36016 5.98659 9.47349 5.98659L11.0735 5.95992C11.1868 5.95992 11.2735 5.87326 11.2735 5.75993L11.2468 4.15991C11.2468 4.04658 11.1602 3.95992 11.0468 3.95992L9.24683 3.98659C8.14016 4.00659 7.26017 4.91325 7.28017 6.01992L7.3135 7.85325C7.32016 8.03992 7.1735 8.18659 6.98684 8.19326L6.18683 8.20658C6.0735 8.20658 5.98684 8.29324 5.98684 8.40658L6.00684 9.67326C6.00684 9.78659 6.09349 9.87325 6.20683 9.87325L7.00684 9.85992C7.1935 9.85992 7.34016 10.0066 7.34682 10.1866L7.40682 13.9866C7.41349 14.3599 7.11349 14.6666 6.74015 14.6666H5.20683C2.78016 14.6666 1.3335 13.2199 1.3335 10.7866V5.20658C1.3335 2.77992 2.78016 1.33325 5.20683 1.33325H10.7935C13.2202 1.33325 14.6668 2.77992 14.6668 5.20658V10.7933Z" fill="#E4E9F2"/>
</svg>
