<svg width="16" height="16" viewBox="0 0 16 16" fill="none" xmlns="http://www.w3.org/2000/svg">
<path d="M10.7935 1.33325H5.20683C2.78016 1.33325 1.3335 2.77992 1.3335 5.20659V10.7866C1.3335 13.2199 2.78016 14.6666 5.20683 14.6666H10.7868C13.2135 14.6666 14.6602 13.2199 14.6602 10.7933V5.20659C14.6668 2.77992 13.2202 1.33325 10.7935 1.33325ZM8.00016 10.5866C6.5735 10.5866 5.4135 9.42659 5.4135 7.99992C5.4135 6.57325 6.5735 5.41325 8.00016 5.41325C9.42683 5.41325 10.5868 6.57325 10.5868 7.99992C10.5868 9.42659 9.42683 10.5866 8.00016 10.5866ZM11.9468 4.58659C11.9135 4.66659 11.8668 4.73992 11.8068 4.80659C11.7402 4.86659 11.6668 4.91325 11.5868 4.94659C11.5068 4.97992 11.4202 4.99992 11.3335 4.99992C11.1535 4.99992 10.9868 4.93325 10.8602 4.80659C10.8002 4.73992 10.7535 4.66659 10.7202 4.58659C10.6868 4.50659 10.6668 4.41992 10.6668 4.33325C10.6668 4.24659 10.6868 4.15992 10.7202 4.07992C10.7535 3.99325 10.8002 3.92659 10.8602 3.85992C11.0135 3.70659 11.2468 3.63325 11.4602 3.67992C11.5068 3.68659 11.5468 3.69992 11.5868 3.71992C11.6268 3.73325 11.6668 3.75325 11.7068 3.77992C11.7402 3.79992 11.7735 3.83325 11.8068 3.85992C11.8668 3.92659 11.9135 3.99325 11.9468 4.07992C11.9802 4.15992 12.0002 4.24659 12.0002 4.33325C12.0002 4.41992 11.9802 4.50659 11.9468 4.58659Z" fill="#E4E9F2"/>
</svg>
