<svg width="16" height="16" viewBox="0 0 16 16" fill="none" xmlns="http://www.w3.org/2000/svg">
<path d="M11.9589 6.78393L11.9589 6.78394L11.9621 6.78131C12.3872 6.4359 12.4553 5.80581 12.1136 5.37793C11.77 4.93218 11.1305 4.87448 10.7068 5.21694L8.62145 6.88257L8.62052 6.88332C8.47186 7.00264 8.24692 7.07825 7.99683 7.07825C7.74674 7.07825 7.5218 7.00264 7.37314 6.88332L7.37221 6.88257L5.2869 5.217C4.8486 4.8626 4.22356 4.95514 3.88544 5.37129L3.88537 5.37123L3.87948 5.37876C3.54666 5.80478 3.61149 6.43461 4.0382 6.78131L4.03819 6.78132L4.04145 6.78393L6.12628 8.44913C6.66127 8.88443 7.34347 9.08659 8.00016 9.08659C8.65974 9.08659 9.33366 8.88286 9.87273 8.45018C9.8729 8.45005 9.87306 8.44991 9.87323 8.44978L11.9589 6.78393ZM4.66683 2.83325H11.3335C12.2568 2.83325 12.9499 3.06416 13.4099 3.49132C13.8632 3.91224 14.1668 4.59522 14.1668 5.66659V10.3333C14.1668 11.4046 13.8632 12.0876 13.4099 12.5085C12.9499 12.9357 12.2568 13.1666 11.3335 13.1666H4.66683C3.74348 13.1666 3.0504 12.9357 2.59039 12.5085C2.13709 12.0876 1.8335 11.4046 1.8335 10.3333V5.66659C1.8335 4.59522 2.13709 3.91224 2.59039 3.49132C3.0504 3.06416 3.74348 2.83325 4.66683 2.83325Z" fill="#E4E9F2" stroke="#E4E9F2"/>
</svg>
